<svg width="300" height="289" viewBox="0 0 300 289" fill="none" xmlns="http://www.w3.org/2000/svg">
<path d="M26.0962 75.7785L150 6.86558L273.904 75.7785V213.222L150 282.134L26.0962 213.222V75.7785Z" stroke="#F97D00" stroke-width="12"/>
<path d="M109.709 156C108.542 165.5 111.709 187.7 133.709 200.5C146.509 200.5 160.042 200.5 165.209 200.5C173.542 197 190.109 183.2 189.709 156M109.709 156C122.875 156 157.309 156 189.709 156M109.709 156H97M189.709 156H202.5" stroke="#F97D00" stroke-width="8"/>
<path d="M117.619 118C116.69 126.112 119.211 145.07 136.728 156C146.919 156 157.695 156 161.808 156C168.443 153.011 181.634 141.227 181.315 118M117.619 118C128.102 118 155.518 118 181.315 118M117.619 118H107.5M181.315 118H191.5" stroke="#F97D00" stroke-width="8"/>
<path d="M126.209 87C125.502 93.618 127.423 109.083 140.769 118C148.534 118 156.743 118 159.878 118C164.933 115.562 174.983 105.948 174.74 87M126.209 87C134.197 87 155.085 87 174.74 87M126.209 87H118.5M174.74 87H182.5" stroke="#F97D00" stroke-width="8"/>
</svg>
